<svg width="240" height="240" viewBox="0 0 240 240" fill="none" xmlns="http://www.w3.org/2000/svg">
  <defs>
    <linearGradient id="bg" x1="28" y1="24" x2="208" y2="220" gradientUnits="userSpaceOnUse">
      <stop stop-color="#123E61"/>
      <stop offset="1" stop-color="#061A2C"/>
    </linearGradient>
    <linearGradient id="skin" x1="70" y1="74" x2="152" y2="170" gradientUnits="userSpaceOnUse">
      <stop stop-color="#4FC7D7"/>
      <stop offset="1" stop-color="#1D7CB2"/>
    </linearGradient>
  </defs>
  <rect width="240" height="240" rx="120" fill="url(#bg)"/>
  <circle cx="120" cy="120" r="108" fill="#0A2137"/>
  <path d="M69 192C76 168 95 154 120 154C145 154 164 168 171 192" fill="#14304B"/>
  <path d="M76 78C89 56 105 48 120 48C135 48 151 56 164 78L170 96L162 158L78 158L70 96L76 78Z" fill="#0F2033"/>
  <path d="M98 88C102 72 112 62 120 62C128 62 138 72 142 88L148 126C148 147 136 164 120 164C104 164 92 147 92 126L98 88Z" fill="url(#skin)"/>
  <path d="M98 103C104 100 112 99 120 99C128 99 136 100 142 103" stroke="#0A2440" stroke-width="4" stroke-linecap="round"/>
  <ellipse cx="104" cy="116" rx="6" ry="4" fill="#08213B"/>
  <ellipse cx="136" cy="116" rx="6" ry="4" fill="#08213B"/>
  <path d="M113 129C116 132 124 132 127 129" stroke="#092847" stroke-width="3.5" stroke-linecap="round"/>
  <path d="M74 84C76 60 95 36 120 36C145 36 164 60 166 84C157 72 145 64 132 61L130 83L118 61L108 84L102 60C91 65 82 73 74 84Z" fill="#13283D"/>
  <path d="M62 200C80 184 98 176 120 176C142 176 160 184 178 200" stroke="#235F8F" stroke-width="8" stroke-linecap="round"/>
  <circle cx="89" cy="53" r="7" fill="#1CFFD5" opacity="0.45"/>
  <circle cx="154" cy="44" r="5" fill="#1CFFD5" opacity="0.35"/>
</svg>
