<svg width="96" height="96" viewBox="0 0 96 96" fill="none" xmlns="http://www.w3.org/2000/svg">
  <rect width="96" height="96" rx="48" fill="url(#paint0_linear)"/>
  <circle cx="48" cy="38" r="16" fill="#E3C5A7"/>
  <path d="M24 84C28 67 38 58 48 58C58 58 68 67 72 84" fill="#1D2434"/>
  <path d="M31 35C31 23 39 18 48 18C57 18 65 24 65 36V42H31V35Z" fill="#2B2E37"/>
  <path d="M37 49C39 56 43 60 48 60C53 60 57 56 59 49" stroke="#2B2E37" stroke-width="6" stroke-linecap="round"/>
  <circle cx="42" cy="38" r="2" fill="#2D1E1E"/>
  <circle cx="54" cy="38" r="2" fill="#2D1E1E"/>
  <defs>
    <linearGradient id="paint0_linear" x1="12" y1="10" x2="84" y2="86" gradientUnits="userSpaceOnUse">
      <stop stop-color="#4F6B8A"/>
      <stop offset="1" stop-color="#111827"/>
    </linearGradient>
  </defs>
</svg>
